<?xml version="1.0" encoding="UTF-8" standalone="no"?>
<!-- Created with Inkscape (http://www.inkscape.org/) -->

<svg
   xmlns:dc="http://purl.org/dc/elements/1.1/"
   xmlns:cc="http://creativecommons.org/ns#"
   xmlns:rdf="http://www.w3.org/1999/02/22-rdf-syntax-ns#"
   xmlns:svg="http://www.w3.org/2000/svg"
   xmlns="http://www.w3.org/2000/svg"
   xmlns:xlink="http://www.w3.org/1999/xlink"
   xmlns:sodipodi="http://sodipodi.sourceforge.net/DTD/sodipodi-0.dtd"
   xmlns:inkscape="http://www.inkscape.org/namespaces/inkscape"
   id="svg2"
   version="1.1"
   inkscape:version="0.91 r"
   xml:space="preserve"
   width="154"
   height="48"
   viewBox="0 0 154 48"
   sodipodi:docname="brasil_inkscape-svg.svg"><metadata
     id="metadata8"><rdf:RDF><cc:Work
         rdf:about=""><dc:format>image/svg+xml</dc:format><dc:type
           rdf:resource="http://purl.org/dc/dcmitype/StillImage" /><dc:title></dc:title></cc:Work></rdf:RDF></metadata><defs
     id="defs6"><color-profile
       name="Apple-RGB"
       xlink:href="/usr/share/color/icc/colord/AppleRGB.icc"
       id="color-profile4300" /><clipPath
       clipPathUnits="userSpaceOnUse"
       id="clipPath16"><path
         d="m 0,403.371 771.077,0 L 771.077,0 0,0 0,403.371 Z"
         id="path18"
         inkscape:connector-curvature="0" /></clipPath></defs><sodipodi:namedview
     pagecolor="#ffffff"
     bordercolor="#666666"
     borderopacity="1"
     objecttolerance="10"
     gridtolerance="10"
     guidetolerance="10"
     inkscape:pageopacity="0"
     inkscape:pageshadow="2"
     inkscape:window-width="1366"
     inkscape:window-height="689"
     id="namedview4"
     showgrid="false"
     inkscape:zoom="3.7444437"
     inkscape:cx="70.315012"
     inkscape:cy="21.843851"
     inkscape:window-x="0"
     inkscape:window-y="26"
     inkscape:window-maximized="1"
     inkscape:current-layer="g14" /><g
     id="g10"
     inkscape:groupmode="layer"
     inkscape:label="Marca Brasil - aplicações"
     transform="matrix(1.25,0,0,-1.25,0,48.000005)"><g
       id="g12"
       transform="matrix(0.21105185,0,0,0.21105185,-19.640942,-23.400936)"><g
         id="g14"
         clip-path="url(#clipPath16)"><g
           id="g20"
           transform="translate(672.335,150.3809)"><path
             d="m 0,0 c 0,-3 -2.456,-5.455 -5.458,-5.455 l -562.728,0 c -3.003,0 -5.46,2.455 -5.46,5.455 l 0,102.609 c 0,3 2.457,5.457 5.46,5.457 l 562.728,0 c 3.002,0 5.458,-2.457 5.458,-5.457 L 0,0 Z"
             style="fill:#fddd04;fill-opacity:1;fill-rule:nonzero;stroke:none"
             id="path22"
             inkscape:connector-curvature="0" /></g><g
           id="g24"
           transform="translate(373.2549,175.7207)"><path
             d="M 0,0 -58.021,32.92 -1.399,-4.359 56.619,32.949 0,0 Z"
             style="fill:#af9802;fill-opacity:1;fill-rule:nonzero;stroke:none"
             id="path26"
             inkscape:connector-curvature="0" /></g><g
           id="g28"
           transform="translate(167.02,181.8711)"><path
             d="m 0,0 c 0,-4.865 -4.216,-8.271 -12.484,-8.271 l -18.97,0 0,16.861 19.132,0 C -4.054,8.59 0,5.187 0,0.32 L 0,0 Z m -31.454,47.83 16.376,0 c 8.107,0 12.163,-2.76 12.163,-7.785 l 0,-0.32 c 0,-5.03 -3.892,-7.786 -12.002,-7.786 l -16.537,0 0,15.891 z M 14.142,22.414 c 12.166,4.213 20.27,12.485 20.27,25.943 l 0,0.325 c 0,7.785 -2.916,13.623 -6.974,17.677 C 20.793,73.01 10.9,76.576 -4.832,76.576 l -53.638,0 -0.013,-0.025 -4.785,0 c -2.822,0 -5.132,-2.309 -5.132,-5.125 l 0,-103.26 c 0,-2.822 2.31,-5.129 5.132,-5.129 l 57.788,0 -0.006,0.022 0.006,0 c 28.705,0 43.627,13.298 43.627,31.461 l 0,0.324 c 0,15.568 -9.407,23.351 -24.005,27.57"
             style="fill:#0c7e43;fill-opacity:1;fill-rule:nonzero;stroke:none"
             id="path30"
             inkscape:connector-curvature="0" /></g><g
           id="g32"
           transform="translate(569.4849,258.4258)"><path
             d="m 0,0 -27.693,0 c -2.82,0 -5.122,-2.313 -5.122,-5.129 l 0,-103.26 c 0,-2.822 2.302,-5.129 5.122,-5.129 l 27.693,0 c 2.819,0 5.126,2.307 5.126,5.129 l 0,103.26 C 5.126,-2.313 2.819,0 0,0"
             style="fill:#0c7e43;fill-opacity:1;fill-rule:nonzero;stroke:none"
             id="path34"
             inkscape:connector-curvature="0" /></g><g
           id="g36"
           transform="translate(667.1997,177.3399)"><path
             d="m 0,0 -43.091,0 c -2.826,0 -5.132,2.311 -5.132,5.131 l 0,70.826 c 0,2.816 -2.307,5.129 -5.126,5.129 l -27.692,0 c -2.821,0 -5.128,-2.313 -5.128,-5.129 l 0,-103.26 c 0,-2.822 2.307,-5.129 5.128,-5.129 l 81.041,0 c 2.824,0 5.126,2.307 5.126,5.129 l 0,22.178 C 5.126,-2.305 2.824,0 0,0"
             style="fill:#0c7e43;fill-opacity:1;fill-rule:nonzero;stroke:none"
             id="path38"
             inkscape:connector-curvature="0" /></g><g
           id="g40"
           transform="translate(275.4863,215.4649)"><path
             d="m 0,0 c 0,-6.973 -5.518,-11.023 -14.598,-11.023 l -16.38,0 0,22.214 16.542,0 C -5.68,11.191 0,7.625 0,0.326 L 0,0 Z m 209.124,2.762 c -11.999,2.269 -15.076,4.217 -15.076,7.299 l 0,0.298 c 0,2.762 2.59,4.709 8.269,4.709 10.542,0 23.228,-4.08 30.235,-8.693 3.212,-2.115 5.169,-0.629 6.817,1.658 l 15.489,21.465 c -0.005,0.004 -0.01,0.006 -0.01,0.014 l 0.01,0.011 c -8.322,6.577 -17.89,11.065 -29.34,13.471 l -39.496,0 C 166.068,37.896 155.448,23.9 155.448,6.816 l 0,-0.345 c 0,-24 22.379,-31.299 47.841,-36.485 1.671,-0.336 3.112,-0.644 4.379,-0.91 8.655,-2 11.351,-3.713 11.351,-6.531 l 0,-0.324 c 0,-3.08 -2.916,-4.862 -9.728,-4.862 -0.498,0 -0.998,0.01 -1.5,0.02 -0.405,0.016 -0.824,0.019 -1.226,0.041 -0.246,0.01 -0.494,0.019 -0.746,0.035 -0.887,0.047 -1.764,0.106 -2.618,0.184 -0.022,0 -0.046,0 -0.072,0.007 -0.871,0.077 -1.72,0.17 -2.552,0.276 -8.726,1.131 -17.562,4.035 -25.803,9.137 -0.028,0.017 -0.06,0.029 -0.098,0.05 -0.159,0.1 -0.327,0.203 -0.478,0.309 -2.791,1.828 -6.512,1.039 -8.322,-1.123 l -9.385,-11.211 -2.243,-2.678 L 118,39.043 c -0.694,1.646 -2.233,3.102 -3.985,3.949 l -33.609,0 C 78.649,42.145 77.108,40.689 76.417,39.043 L 34.839,-60.33 15.396,-31.937 c 13.785,6.648 22.38,18.16 22.38,34.699 l 0,0.324 c 0,11.678 -3.572,20.109 -10.38,26.92 -7.946,7.947 -20.757,12.976 -40.867,12.976 l -45.047,0 -0.004,-0.021 -5.284,0 c -2.818,0 -5.124,-2.313 -5.124,-5.129 l 0,-103.26 c 0,-2.822 2.306,-5.127 5.124,-5.127 l 27.692,0 c 2.822,0 5.13,2.305 5.13,5.127 l 0,22.178 c 0,2.82 1.749,5.125 3.894,5.125 l 4.05,0 c 0.088,0 1.436,-1.922 2.99,-4.279 l 15.76,-23.873 c 1.547,-2.354 5.128,-4.278 7.945,-4.278 l 32.007,0 c 0.007,0 0.015,-0.002 0.025,-0.002 l 30.286,0 c 2.823,0 5.949,2.155 6.961,4.791 l 2.85,7.909 c 1.01,2.63 4.146,4.787 6.964,4.787 l 27.984,0 c 2.819,0 5.971,-2.147 7.002,-4.768 l 3.056,-7.945 c 1.034,-2.629 4.185,-4.774 7.007,-4.774 l 30.936,0 c 2.816,0 4.232,2.127 3.145,4.731 l -2.005,4.787 c 7.624,-4.41 16.309,-7.607 25.732,-9.506 l 40.288,0 c 19.738,4.805 31.719,17.732 31.719,36.334 l 0,0.328 c 0,22.862 -19.458,31.295 -48.488,36.645"
             style="fill:#0c7e43;fill-opacity:1;fill-rule:nonzero;stroke:none"
             id="path42"
             inkscape:connector-curvature="0" /></g><g
           id="g44"
           transform="translate(329.3609,200.627)"><path
             d="M 0,0 -0.424,-1.008 42.495,-29.266 86.953,-0.678 86.672,-0.012 43.894,-24.906 0,0 Z"
             style="fill:#08592d;fill-opacity:1;fill-rule:nonzero;stroke:none"
             id="path46"
             inkscape:connector-curvature="0" /></g><g
           id="g48"
           transform="translate(372.5073,174.2227)"><path
             d="M 0,0 -57.362,34.443 0,68.893 57.367,34.443 0,0 Z"
             style="fill:#f89c0e;fill-opacity:1;fill-rule:nonzero;stroke:none"
             id="path50"
             inkscape:connector-curvature="0" /></g><g
           id="g52"
           transform="translate(351.8823,208.6699)"><path
             d="m 0,0 c 0,11.398 9.233,20.631 20.625,20.631 11.401,0 20.639,-9.233 20.639,-20.631 0,-11.395 -9.238,-20.631 -20.639,-20.631 C 9.233,-20.631 0,-11.395 0,0"
             style="fill:#2156a3;fill-opacity:1;fill-rule:nonzero;stroke:none"
             id="path54"
             inkscape:connector-curvature="0" /></g><g
           id="g56"
           transform="translate(352.8062,214.8106)"><path
             d="m 0,0 c -0.382,-1.242 -0.654,-2.531 -0.8,-3.861 12.992,3.73 28.708,0.552 40.277,-8.194 0.364,1.225 0.62,2.502 0.751,3.817 C 28.483,0.016 13.148,3.133 0,0"
             style="fill:#ffffff;fill-opacity:1;fill-rule:nonzero;stroke:none"
             id="path58"
             inkscape:connector-curvature="0" /></g><g
           id="g60"
           transform="translate(107.0703,122.7051)"><path
             d="m 0,0 c 1.107,0 1.969,0.289 2.575,0.867 0.61,0.59 0.914,1.307 0.914,2.162 l 0,0.063 c 0,0.99 -0.311,1.744 -0.958,2.254 -0.635,0.517 -1.508,0.775 -2.616,0.775 l -3.404,0 L -3.489,0 0,0 Z m -7.896,10.096 8.189,0 c 1.196,0 2.27,-0.168 3.215,-0.498 C 4.447,9.268 5.255,8.795 5.909,8.182 6.569,7.572 7.074,6.842 7.423,5.99 7.779,5.146 7.955,4.207 7.955,3.178 l 0,-0.061 C 7.955,1.953 7.747,0.936 7.328,0.057 6.906,-0.816 6.331,-1.557 5.593,-2.143 4.861,-2.734 4.001,-3.186 3.023,-3.477 2.039,-3.775 0.984,-3.918 -0.142,-3.918 l -3.347,0 0,-6.01 -4.407,0 0,20.024 z"
             style="fill:#163a5b;fill-opacity:1;fill-rule:nonzero;stroke:none"
             id="path62"
             inkscape:connector-curvature="0" /></g><g
           id="g64"
           transform="translate(145.1289,139.4434)"><path
             d="m 0,0 3.748,-1.633 -3.663,-3.428 -3.32,0 L 0,0 Z m 1.198,-18.279 -2.66,6.49 -2.661,-6.49 5.321,0 z m -4.635,11.787 4.065,0 8.582,-20.174 -4.606,0 -1.833,4.488 -8.467,0 -1.832,-4.488 -4.491,0 8.582,20.174 z"
             style="fill:#163a5b;fill-opacity:1;fill-rule:nonzero;stroke:none"
             id="path66"
             inkscape:connector-curvature="0" /></g><g
           id="g68"
           transform="translate(178.6309,128.7442)"><path
             d="m 0,0 -6.096,0 0,4.057 16.595,0 0,-4.057 -6.09,0 0,-15.967 -4.409,0 L 0,0 Z"
             style="fill:#163a5b;fill-opacity:1;fill-rule:nonzero;stroke:none"
             id="path70"
             inkscape:connector-curvature="0" /></g><g
           id="g72"
           transform="translate(217.9146,123.0723)"><path
             d="m 0,0 c 1.088,0 1.923,0.262 2.505,0.779 0.581,0.51 0.873,1.203 0.873,2.057 l 0,0.057 c 0,0.959 -0.311,1.669 -0.912,2.15 -0.614,0.473 -1.463,0.711 -2.551,0.711 l -4.375,0 L -4.46,0 0,0 Z m -8.867,9.728 9.153,0 C 2.823,9.728 4.771,9.057 6.123,7.703 7.268,6.557 7.846,5.029 7.846,3.129 l 0,-0.061 C 7.846,1.445 7.444,0.131 6.655,-0.891 5.864,-1.914 4.83,-2.666 3.553,-3.147 l 4.886,-7.148 -5.145,0 -4.297,6.406 -0.051,0 -3.406,0 0,-6.406 -4.407,0 0,20.023 z"
             style="fill:#163a5b;fill-opacity:1;fill-rule:nonzero;stroke:none"
             id="path74"
             inkscape:connector-curvature="0" /></g><path
           d="m 246.472,132.801 4.408,0 0,-20.023 -4.408,0 0,20.023 z"
           style="fill:#163a5b;fill-opacity:1;fill-rule:nonzero;stroke:none"
           id="path76"
           inkscape:connector-curvature="0" /><g
           id="g78"
           transform="translate(283.9224,121.1641)"><path
             d="M 0,0 -2.654,6.49 -5.321,0 0,0 Z m -4.634,11.787 4.066,0 8.582,-20.174 -4.609,0 -1.825,4.489 -8.473,0 -1.832,-4.489 -4.492,0 8.583,20.174 z"
             style="fill:#163a5b;fill-opacity:1;fill-rule:nonzero;stroke:none"
             id="path80"
             inkscape:connector-curvature="0" /></g><g
           id="g82"
           transform="translate(346.3579,132.8008)"><path
             d="m 0,0 15.075,0 0,-3.914 -10.725,0 0,-4.068 9.438,0 0,-3.914 -9.438,0 0,-4.207 10.868,0 0,-3.92 L 0,-20.023 0,0 Z"
             style="fill:#163a5b;fill-opacity:1;fill-rule:nonzero;stroke:none"
             id="path84"
             inkscape:connector-curvature="0" /></g><g
           id="g86"
           transform="translate(389.874,116.7481)"><path
             d="m 0,0 c 0.907,0 1.721,0.15 2.465,0.436 0.739,0.285 1.378,0.699 1.904,1.228 0.524,0.529 0.932,1.166 1.23,1.889 0.299,0.726 0.44,1.533 0.44,2.429 l 0,0.063 c 0,0.873 -0.141,1.684 -0.44,2.43 C 5.301,9.217 4.893,9.859 4.369,10.389 3.843,10.926 3.204,11.336 2.465,11.641 1.721,11.93 0.907,12.078 0,12.078 l -3.399,0 L -3.399,0 0,0 Z m -7.807,16.053 7.807,0 c 1.567,0 3.004,-0.25 4.312,-0.756 1.3,-0.502 2.432,-1.205 3.376,-2.098 0.946,-0.898 1.672,-1.957 2.19,-3.166 0.511,-1.209 0.77,-2.523 0.77,-3.933 l 0,-0.055 C 10.648,4.629 10.389,3.314 9.878,2.1 9.36,0.873 8.634,-0.187 7.688,-1.078 6.744,-1.98 5.612,-2.686 4.312,-3.197 3.004,-3.715 1.567,-3.971 0,-3.971 l -7.807,0 0,20.024 z"
             style="fill:#163a5b;fill-opacity:1;fill-rule:nonzero;stroke:none"
             id="path88"
             inkscape:connector-curvature="0" /></g><g
           id="g90"
           transform="translate(429.3311,112.4649)"><path
             d="m 0,0 c -2.686,0 -4.802,0.736 -6.35,2.232 -1.54,1.483 -2.317,3.709 -2.317,6.663 l 0,11.441 4.401,0 0,-11.328 c 0,-1.635 0.39,-2.873 1.153,-3.701 0.757,-0.836 1.818,-1.248 3.178,-1.248 1.346,0 2.407,0.4 3.172,1.203 0.757,0.802 1.139,2 1.139,3.603 l 0,11.471 4.414,0 0,-11.299 C 8.79,7.512 8.584,6.186 8.174,5.061 7.755,3.934 7.172,2.998 6.415,2.246 5.65,1.486 4.72,0.924 3.638,0.557 2.551,0.182 1.34,0 0,0"
             style="fill:#163a5b;fill-opacity:1;fill-rule:nonzero;stroke:none"
             id="path92"
             inkscape:connector-curvature="0" /></g><g
           id="g94"
           transform="translate(468.5357,112.4297)"><path
             d="m 0,0 c -1.469,0 -2.834,0.273 -4.098,0.805 -1.254,0.535 -2.341,1.263 -3.256,2.187 -0.918,0.926 -1.63,2.02 -2.149,3.276 -0.511,1.261 -0.768,2.601 -0.768,4.033 l 0,0.062 c 0,1.432 0.257,2.766 0.768,4.014 0.519,1.258 1.231,2.35 2.149,3.295 0.915,0.937 2.015,1.683 3.29,2.232 1.281,0.543 2.686,0.811 4.232,0.811 0.938,0 1.794,-0.07 2.564,-0.227 0.771,-0.148 1.474,-0.361 2.097,-0.629 0.641,-0.265 1.211,-0.595 1.754,-0.97 0.532,-0.381 1.022,-0.803 1.483,-1.26 L 5.268,14.391 c -0.782,0.713 -1.585,1.263 -2.387,1.662 -0.822,0.404 -1.729,0.597 -2.739,0.597 -0.834,0 -1.617,-0.156 -2.334,-0.478 -0.72,-0.324 -1.33,-0.779 -1.84,-1.348 -0.524,-0.568 -0.92,-1.238 -1.205,-1.986 -0.291,-0.76 -0.426,-1.561 -0.426,-2.42 l 0,-0.055 c 0,-0.859 0.135,-1.67 0.426,-2.431 0.285,-0.766 0.681,-1.432 1.192,-2.006 0.498,-0.572 1.113,-1.024 1.825,-1.36 0.718,-0.33 1.502,-0.498 2.362,-0.498 1.147,0 2.11,0.205 2.901,0.625 0.789,0.422 1.579,0.991 2.362,1.725 L 8.209,3.582 C 7.697,3.027 7.159,2.531 6.602,2.094 6.053,1.652 5.45,1.277 4.789,0.959 4.135,0.648 3.411,0.41 2.627,0.248 1.846,0.086 0.97,0 0,0"
             style="fill:#163a5b;fill-opacity:1;fill-rule:nonzero;stroke:none"
             id="path96"
             inkscape:connector-curvature="0" /></g><g
           id="g98"
           transform="translate(508.3052,121.1641)"><path
             d="M 0,0 -2.661,6.49 -5.321,0 0,0 Z m -4.636,11.787 4.06,0 8.596,-20.174 -4.617,0 -1.832,4.489 -8.466,0 -1.832,-4.489 -4.49,0 8.581,20.174 z"
             style="fill:#163a5b;fill-opacity:1;fill-rule:nonzero;stroke:none"
             id="path100"
             inkscape:connector-curvature="0" /></g><g
           id="g102"
           transform="translate(543.7534,116.7481)"><path
             d="M 0,0 C 0.902,0 1.716,0.15 2.467,0.436 3.205,0.721 3.84,1.135 4.364,1.664 4.888,2.193 5.302,2.83 5.595,3.553 5.892,4.279 6.041,5.086 6.041,5.982 l 0,0.063 c 0,0.873 -0.149,1.684 -0.446,2.43 C 5.302,9.217 4.888,9.859 4.364,10.389 3.84,10.926 3.205,11.336 2.467,11.641 1.716,11.93 0.902,12.078 0,12.078 l -3.403,0 L -3.403,0 0,0 Z m -7.806,16.053 7.806,0 c 1.567,0 2.999,-0.25 4.312,-0.756 C 5.613,14.795 6.741,14.092 7.685,13.199 8.63,12.301 9.355,11.242 9.873,10.033 10.384,8.824 10.649,7.51 10.649,6.1 l 0,-0.055 C 10.649,4.629 10.384,3.314 9.873,2.1 9.355,0.873 8.63,-0.187 7.685,-1.078 6.741,-1.98 5.613,-2.686 4.312,-3.197 2.999,-3.715 1.567,-3.971 0,-3.971 l -7.806,0 0,20.024 z"
             style="fill:#163a5b;fill-opacity:1;fill-rule:nonzero;stroke:none"
             id="path104"
             inkscape:connector-curvature="0" /></g><g
           id="g106"
           transform="translate(584.6421,116.4981)"><path
             d="m 0,0 c 0.874,0 1.691,0.162 2.434,0.486 0.738,0.323 1.38,0.768 1.903,1.34 0.526,0.574 0.932,1.24 1.229,1.99 0.3,0.758 0.441,1.563 0.441,2.416 l 0,0.063 c 0,0.855 -0.141,1.664 -0.441,2.43 -0.297,0.761 -0.716,1.427 -1.26,2.005 -0.545,0.569 -1.185,1.024 -1.931,1.354 -0.743,0.342 -1.552,0.498 -2.426,0.498 -0.906,0 -1.722,-0.156 -2.452,-0.479 C -3.235,11.779 -3.87,11.324 -4.388,10.756 -4.919,10.188 -5.326,9.518 -5.626,8.77 -5.923,8.01 -6.065,7.209 -6.065,6.35 l 0,-0.055 c 0,-0.859 0.142,-1.67 0.439,-2.432 0.3,-0.765 0.719,-1.431 1.264,-2.006 C -3.817,1.285 -3.178,0.834 -2.448,0.498 -1.714,0.168 -0.892,0 0,0 m -0.051,-4.068 c -1.553,0 -2.97,0.273 -4.273,0.816 -1.294,0.547 -2.413,1.277 -3.359,2.211 -0.938,0.916 -1.675,2.012 -2.199,3.254 -0.525,1.248 -0.79,2.588 -0.79,4.019 l 0,0.063 c 0,1.432 0.271,2.766 0.797,4.014 0.542,1.257 1.279,2.349 2.224,3.294 0.94,0.938 2.065,1.684 3.38,2.233 1.299,0.543 2.725,0.81 4.271,0.81 1.548,0 2.964,-0.267 4.266,-0.81 1.294,-0.549 2.415,-1.279 3.359,-2.207 0.946,-0.926 1.676,-2.006 2.207,-3.26 0.519,-1.244 0.79,-2.584 0.79,-4.019 l 0,-0.055 C 10.622,4.861 10.351,3.527 9.813,2.275 9.282,1.021 8.546,-0.074 7.593,-1.016 6.653,-1.963 5.528,-2.705 4.222,-3.252 2.92,-3.795 1.489,-4.068 -0.051,-4.068"
             style="fill:#163a5b;fill-opacity:1;fill-rule:nonzero;stroke:none"
             id="path108"
             inkscape:connector-curvature="0" /></g><g
           id="g110"
           transform="translate(624.585,123.0723)"><path
             d="M 0,0 C 1.087,0 1.922,0.262 2.505,0.779 3.081,1.289 3.38,1.982 3.38,2.836 l 0,0.057 c 0,0.959 -0.311,1.669 -0.921,2.15 -0.608,0.473 -1.456,0.711 -2.543,0.711 l -4.376,0 L -4.46,0 0,0 Z m -8.874,9.728 9.152,0 C 2.823,9.728 4.764,9.057 6.123,7.703 7.269,6.557 7.839,5.029 7.839,3.129 l 0,-0.061 C 7.839,1.445 7.444,0.131 6.647,-0.891 5.858,-1.914 4.829,-2.666 3.546,-3.147 l 4.895,-7.148 -5.146,0 -4.29,6.406 -0.059,0 -3.406,0 0,-6.406 -4.414,0 0,20.023 z"
             style="fill:#163a5b;fill-opacity:1;fill-rule:nonzero;stroke:none"
             id="path112"
             inkscape:connector-curvature="0" /></g><g
           id="g114"
           transform="translate(664.4439,121.1641)"><path
             d="M 0,0 -2.661,6.49 -5.32,0 0,0 Z m -4.641,11.787 4.071,0 8.583,-20.174 -4.608,0 -1.832,4.489 -8.472,0 -1.826,-4.489 -4.499,0 8.583,20.174 z"
             style="fill:#163a5b;fill-opacity:1;fill-rule:nonzero;stroke:none"
             id="path116"
             inkscape:connector-curvature="0" /></g><g
           id="g118"
           transform="translate(109.7056,270.2227)"><path
             d="M 0,0 C -1.568,0 -2.991,0.258 -4.28,0.775 -5.567,1.287 -6.674,2 -7.601,2.918 -8.524,3.832 -9.244,4.926 -9.755,6.18 c -0.519,1.259 -0.776,2.634 -0.776,4.123 l 0,0.054 c 0,1.428 0.263,2.774 0.789,4.02 0.525,1.246 1.256,2.35 2.189,3.293 0.93,0.943 2.038,1.687 3.319,2.232 1.275,0.543 2.68,0.817 4.207,0.817 0.894,0 1.71,-0.067 2.446,-0.19 C 3.151,20.406 3.831,20.229 4.464,20 5.093,19.77 5.682,19.484 6.239,19.141 6.788,18.803 7.326,18.408 7.837,17.967 L 5.061,14.621 c -0.382,0.322 -0.764,0.611 -1.14,0.861 -0.381,0.245 -0.776,0.452 -1.191,0.627 -0.414,0.174 -0.853,0.303 -1.333,0.399 -0.473,0.097 -0.997,0.144 -1.572,0.144 -0.803,0 -1.547,-0.168 -2.247,-0.502 -0.692,-0.336 -1.301,-0.783 -1.832,-1.349 -0.518,-0.563 -0.931,-1.223 -1.229,-1.981 -0.292,-0.75 -0.44,-1.558 -0.44,-2.42 l 0,-0.058 c 0,-0.916 0.148,-1.762 0.44,-2.537 0.298,-0.772 0.717,-1.448 1.262,-2.02 0.544,-0.574 1.186,-1.015 1.916,-1.336 0.73,-0.314 1.553,-0.474 2.447,-0.474 1.636,0 3.022,0.408 4.149,1.216 l 0,2.879 -4.434,0 0,3.807 8.7,0 0,-8.699 C 7.526,2.297 6.296,1.551 4.874,0.932 3.455,0.312 1.831,0 0,0"
             style="fill:#231f20;fill-opacity:1;fill-rule:nonzero;stroke:none"
             id="path120"
             inkscape:connector-curvature="0" /></g><g
           id="g122"
           transform="translate(151.6216,274.2871)"><path
             d="m 0,0 c 0.873,0 1.689,0.162 2.434,0.486 0.744,0.325 1.379,0.772 1.897,1.346 0.53,0.568 0.938,1.231 1.234,1.986 0.293,0.756 0.442,1.559 0.442,2.42 l 0,0.055 c 0,0.859 -0.149,1.668 -0.442,2.432 -0.296,0.763 -0.717,1.433 -1.261,2.005 -0.545,0.569 -1.189,1.024 -1.929,1.356 -0.743,0.334 -1.553,0.502 -2.432,0.502 -0.902,0 -1.712,-0.16 -2.448,-0.484 C -3.235,11.775 -3.87,11.326 -4.394,10.756 -4.92,10.188 -5.328,9.52 -5.624,8.77 -5.923,8.016 -6.064,7.209 -6.064,6.348 l 0,-0.055 c 0,-0.857 0.141,-1.668 0.44,-2.43 C -5.328,3.098 -4.913,2.432 -4.362,1.857 -3.819,1.285 -3.178,0.836 -2.446,0.498 -1.714,0.168 -0.9,0 0,0 m -0.057,-4.064 c -1.548,0 -2.965,0.269 -4.261,0.816 -1.3,0.543 -2.419,1.275 -3.366,2.201 -0.944,0.926 -1.676,2.018 -2.206,3.264 -0.518,1.252 -0.784,2.592 -0.784,4.021 l 0,0.055 c 0,1.428 0.266,2.773 0.803,4.02 0.53,1.246 1.269,2.349 2.221,3.292 0.938,0.944 2.065,1.688 3.372,2.233 1.306,0.543 2.732,0.816 4.278,0.816 1.54,0 2.964,-0.273 4.266,-0.816 1.294,-0.545 2.414,-1.283 3.358,-2.207 0.945,-0.926 1.677,-2.014 2.201,-3.26 0.526,-1.25 0.789,-2.592 0.789,-4.023 l 0,-0.055 C 10.614,4.863 10.351,3.52 9.813,2.27 9.275,1.021 8.544,-0.07 7.593,-1.016 6.655,-1.963 5.521,-2.705 4.22,-3.248 2.913,-3.795 1.489,-4.064 -0.057,-4.064"
             style="fill:#231f20;fill-opacity:1;fill-rule:nonzero;stroke:none"
             id="path124"
             inkscape:connector-curvature="0" /></g><g
           id="g126"
           transform="translate(183.7837,290.5977)"><path
             d="M 0,0 4.861,0 10.097,-14.109 15.334,0 l 4.751,0 -8.096,-20.174 -3.897,0 L 0,0 Z"
             style="fill:#231f20;fill-opacity:1;fill-rule:nonzero;stroke:none"
             id="path128"
             inkscape:connector-curvature="0" /></g><g
           id="g130"
           transform="translate(226.2969,290.5977)"><path
             d="m 0,0 15.081,0 0,-3.924 -10.731,0 0,-4.064 9.443,0 0,-3.916 -9.443,0 0,-4.207 10.874,0 0,-3.924 L 0,-20.035 0,0 Z"
             style="fill:#231f20;fill-opacity:1;fill-rule:nonzero;stroke:none"
             id="path132"
             inkscape:connector-curvature="0" /></g><g
           id="g134"
           transform="translate(273.6831,280.8692)"><path
             d="M 0,0 C 1.087,0 1.922,0.258 2.505,0.77 3.08,1.287 3.372,1.975 3.372,2.828 l 0,0.061 C 3.372,3.842 3.067,4.557 2.46,5.035 1.845,5.508 0.997,5.748 -0.084,5.748 l -4.383,0 L -4.467,0 0,0 Z m -8.868,9.728 9.154,0 c 2.536,0 4.485,-0.679 5.837,-2.033 1.145,-1.146 1.716,-2.674 1.716,-4.58 l 0,-0.055 C 7.839,1.437 7.444,0.117 6.655,-0.902 5.858,-1.922 4.823,-2.674 3.546,-3.147 l 4.894,-7.16 -5.152,0 -4.291,6.416 -0.058,0 -3.406,0 0,-6.416 -4.401,0 0,20.035 z"
             style="fill:#231f20;fill-opacity:1;fill-rule:nonzero;stroke:none"
             id="path136"
             inkscape:connector-curvature="0" /></g><g
           id="g138"
           transform="translate(304.8423,290.5977)"><path
             d="m 0,0 4.058,0 9.393,-12.33 0,12.33 4.342,0 0,-20.035 -3.747,0 -9.696,12.734 0,-12.734 -4.35,0 L 0,0 Z"
             style="fill:#231f20;fill-opacity:1;fill-rule:nonzero;stroke:none"
             id="path140"
             inkscape:connector-curvature="0" /></g><g
           id="g142"
           transform="translate(356.5718,274.2871)"><path
             d="m 0,0 c 0.873,0 1.689,0.162 2.434,0.486 0.744,0.325 1.38,0.772 1.903,1.346 0.524,0.568 0.932,1.231 1.229,1.986 0.298,0.756 0.441,1.559 0.441,2.42 l 0,0.055 c 0,0.859 -0.143,1.668 -0.441,2.432 -0.297,0.763 -0.718,1.433 -1.26,2.005 -0.545,0.569 -1.186,1.024 -1.931,1.356 -0.743,0.334 -1.553,0.502 -2.434,0.502 -0.892,0 -1.708,-0.16 -2.446,-0.484 C -3.237,11.775 -3.864,11.326 -4.394,10.756 -4.912,10.188 -5.327,9.52 -5.626,8.77 -5.915,8.016 -6.064,7.209 -6.064,6.348 l 0,-0.055 c 0,-0.857 0.149,-1.668 0.438,-2.43 C -5.327,3.098 -4.905,2.432 -4.362,1.857 -3.819,1.285 -3.178,0.836 -2.448,0.498 -1.714,0.168 -0.894,0 0,0 m -0.059,-4.064 c -1.54,0 -2.964,0.269 -4.265,0.816 -1.296,0.543 -2.413,1.275 -3.359,2.201 -0.945,0.926 -1.676,2.018 -2.201,3.264 -0.523,1.252 -0.79,2.592 -0.79,4.021 l 0,0.055 c 0,1.428 0.273,2.773 0.803,4.02 0.538,1.246 1.276,2.349 2.22,3.292 0.939,0.944 2.065,1.688 3.373,2.233 1.306,0.543 2.732,0.816 4.278,0.816 1.546,0 2.966,-0.273 4.266,-0.816 1.294,-0.545 2.414,-1.283 3.359,-2.207 0.944,-0.926 1.684,-2.014 2.202,-3.26 0.53,-1.25 0.789,-2.592 0.789,-4.023 l 0,-0.055 C 10.616,4.863 10.351,3.52 9.814,2.27 9.282,1.021 8.544,-0.07 7.591,-1.016 6.655,-1.963 5.528,-2.705 4.22,-3.248 2.913,-3.795 1.489,-4.064 -0.059,-4.064"
             style="fill:#231f20;fill-opacity:1;fill-rule:nonzero;stroke:none"
             id="path144"
             inkscape:connector-curvature="0" /></g><g
           id="g146"
           transform="translate(418.3804,290.5977)"><path
             d="m 0,0 15.25,0 0,-3.98 -10.85,0 0,-4.319 9.56,0 0,-3.98 -9.56,0 0,-7.756 -4.4,0 L 0,0 Z"
             style="fill:#231f20;fill-opacity:1;fill-rule:nonzero;stroke:none"
             id="path148"
             inkscape:connector-curvature="0" /></g><g
           id="g150"
           transform="translate(456.4898,290.5977)"><path
             d="m 0,0 15.082,0 0,-3.924 -10.732,0 0,-4.064 9.437,0 0,-3.916 -9.437,0 0,-4.207 10.868,0 0,-3.924 L 0,-20.035 0,0 Z"
             style="fill:#231f20;fill-opacity:1;fill-rule:nonzero;stroke:none"
             id="path152"
             inkscape:connector-curvature="0" /></g><g
           id="g154"
           transform="translate(502.8091,274.5449)"><path
             d="M 0,0 C 0.9,0 1.715,0.143 2.461,0.428 3.21,0.713 3.839,1.123 4.369,1.656 4.887,2.193 5.301,2.82 5.599,3.547 5.89,4.27 6.039,5.08 6.039,5.98 l 0,0.055 c 0,0.877 -0.149,1.69 -0.44,2.432 C 5.301,9.213 4.887,9.852 4.369,10.383 3.839,10.92 3.21,11.334 2.461,11.631 1.715,11.924 0.9,12.072 0,12.072 l -3.398,0 L -3.398,0 0,0 Z m -7.814,16.053 7.814,0 c 1.565,0 3.004,-0.256 4.31,-0.758 1.302,-0.512 2.427,-1.209 3.374,-2.104 0.944,-0.9 1.674,-1.955 2.186,-3.166 0.519,-1.209 0.777,-2.523 0.777,-3.935 l 0,-0.055 C 10.647,4.621 10.389,3.305 9.87,2.092 9.358,0.869 8.628,-0.191 7.684,-1.086 6.737,-1.982 5.612,-2.693 4.31,-3.205 3.004,-3.723 1.565,-3.982 0,-3.982 l -7.814,0 0,20.035 z"
             style="fill:#231f20;fill-opacity:1;fill-rule:nonzero;stroke:none"
             id="path156"
             inkscape:connector-curvature="0" /></g><g
           id="g158"
           transform="translate(536.7134,290.5977)"><path
             d="m 0,0 15.081,0 0,-3.924 -10.725,0 0,-4.064 9.438,0 0,-3.916 -9.438,0 0,-4.207 10.868,0 0,-3.924 L 0,-20.035 0,0 Z"
             style="fill:#231f20;fill-opacity:1;fill-rule:nonzero;stroke:none"
             id="path160"
             inkscape:connector-curvature="0" /></g><g
           id="g162"
           transform="translate(584.0996,280.8692)"><path
             d="m 0,0 c 1.087,0 1.922,0.258 2.505,0.77 0.582,0.517 0.873,1.205 0.873,2.058 l 0,0.061 c 0,0.953 -0.311,1.668 -0.913,2.146 -0.622,0.473 -1.462,0.713 -2.549,0.713 l -4.377,0 L -4.461,0 0,0 Z m -8.868,9.728 9.152,0 C 2.821,9.728 4.77,9.049 6.123,7.695 7.269,6.549 7.837,5.021 7.837,3.115 l 0,-0.055 c 0,-1.623 -0.393,-2.943 -1.184,-3.962 -0.795,-1.02 -1.83,-1.772 -3.1,-2.245 l 4.887,-7.16 -5.146,0 -4.297,6.416 -0.053,0 -3.405,0 0,-6.416 -4.407,0 0,20.035 z"
             style="fill:#231f20;fill-opacity:1;fill-rule:nonzero;stroke:none"
             id="path164"
             inkscape:connector-curvature="0" /></g><g
           id="g166"
           transform="translate(626.7598,278.9532)"><path
             d="M 0,0 -2.659,6.492 -5.32,0 0,0 Z m -4.634,11.787 4.066,0 8.575,-20.178 -4.602,0 -1.825,4.493 -8.473,0 -1.832,-4.493 -4.499,0 8.59,20.178 z"
             style="fill:#231f20;fill-opacity:1;fill-rule:nonzero;stroke:none"
             id="path168"
             inkscape:connector-curvature="0" /></g><g
           id="g170"
           transform="translate(657.2017,290.5977)"><path
             d="m 0,0 4.408,0 0,-16.053 9.987,0 0,-3.982 L 0,-20.035 0,0 Z"
             style="fill:#231f20;fill-opacity:1;fill-rule:nonzero;stroke:none"
             id="path172"
             inkscape:connector-curvature="0" /></g></g></g></g></svg>